<svg id="Layer_1" data-name="Layer 1" xmlns="http://www.w3.org/2000/svg" xmlns:xlink="http://www.w3.org/1999/xlink" viewBox="0 0 544.82 161.89"><defs><style>.cls-1{font-size:72px;fill:#f7941d;stroke:#231f20;stroke-miterlimit:10;stroke-width:2px;font-family:BrushScriptMT, Brush Script MT;}.cls-2{font-size:12px;font-family:AdobeArabic-Regular, Adobe Arabic;}.cls-3{fill:url(#linear-gradient);}.cls-4{fill:url(#linear-gradient-2);}.cls-5{fill:url(#linear-gradient-3);}.cls-6{fill:url(#linear-gradient-4);}.cls-7{fill:url(#linear-gradient-5);}.cls-8{fill:url(#linear-gradient-6);}.cls-9{fill:url(#linear-gradient-7);}</style><linearGradient id="linear-gradient" x1="50.33" y1="82.88" x2="103.76" y2="82.88" gradientUnits="userSpaceOnUse"><stop offset="0" stop-color="#fff"/><stop offset="0.7" stop-color="#f7941d"/></linearGradient><linearGradient id="linear-gradient-2" x1="50.33" y1="30.6" x2="103.76" y2="30.6" xlink:href="#linear-gradient"/><linearGradient id="linear-gradient-3" x1="93.44" y1="56.49" x2="146.87" y2="56.49" xlink:href="#linear-gradient"/><linearGradient id="linear-gradient-4" x1="6.31" y1="57.46" x2="59.73" y2="57.46" xlink:href="#linear-gradient"/><linearGradient id="linear-gradient-5" x1="6.31" y1="108.31" x2="59.73" y2="108.31" xlink:href="#linear-gradient"/><linearGradient id="linear-gradient-6" x1="93.44" y1="107.34" x2="146.87" y2="107.34" xlink:href="#linear-gradient"/><linearGradient id="linear-gradient-7" x1="50.33" y1="132.56" x2="103.76" y2="132.56" xlink:href="#linear-gradient"/></defs><text class="cls-1" transform="translate(159.62 92.83)"><tspan xml:space="preserve">Nahla Software  </tspan><tspan class="cls-2" x="416.25" y="0"> </tspan></text><polygon class="cls-3" points="90.4 59.75 63.69 59.75 50.33 82.88 63.69 106.02 90.4 106.02 103.76 82.88 90.4 59.75"/><polygon class="cls-4" points="90.4 7.47 63.69 7.47 50.33 30.6 63.69 53.74 90.4 53.74 103.76 30.6 90.4 7.47"/><polygon class="cls-5" points="133.51 33.35 106.8 33.35 93.44 56.49 106.8 79.62 133.51 79.62 146.87 56.49 133.51 33.35"/><polygon class="cls-6" points="46.38 34.32 19.66 34.32 6.31 57.46 19.66 80.59 46.38 80.59 59.73 57.46 46.38 34.32"/><polygon class="cls-7" points="46.38 85.17 19.66 85.17 6.31 108.31 19.66 131.44 46.38 131.44 59.73 108.31 46.38 85.17"/><polygon class="cls-8" points="133.51 84.2 106.8 84.2 93.44 107.34 106.8 130.47 133.51 130.47 146.87 107.34 133.51 84.2"/><polygon class="cls-9" points="90.4 109.43 63.69 109.43 50.33 132.56 63.69 155.7 90.4 155.7 103.76 132.56 90.4 109.43"/></svg>